# xmcd
#
# Track frame offsets: 
#        150
#        22245
#        46325
#        66797
#        83077
#        99751
#        127221
#        141108
#        155137
#        178560
#
# Disc length: 2565 seconds
#
# Revision: 0
# Processed by: cddbd v1.5.1PL0 Copyright (c) Steve Scherf et al.
# Submitted via: ExactAudioCopy v0.95a3
#
DISCID=870a030a
DTITLE=Erik Halbig - Balancing Act
DYEAR=2001
DGENRE=Country
TTITLE0=The Lowdown
TTITLE1=The Right Stuff
TTITLE2=Bourbon Voodoo Swing
TTITLE3=Runaway Guitar
TTITLE4=Reed Between The Lines
TTITLE5=Waiema Canyon Blues
TTITLE6=Meeting Of The Turtles
TTITLE7=Sleeping On The Job
TTITLE8=Postcards From Hanalei
TTITLE9=Elena
EXTD=
EXTT0=
EXTT1=
EXTT2=
EXTT3=
EXTT4=
EXTT5=
EXTT6=
EXTT7=
EXTT8=
EXTT9=
PLAYORDER=
